<svg xmlns="http://www.w3.org/2000/svg" viewBox="0 0 51 40"><path fill="#D72D2A" d="M0 0v39.7l35.4-4.4 14.8-35.3z"/><path fill="#FFF" d="M24.6 7.2c2.8 3 5.1 6 6.6 8.1.5.7 1 1.4 1.3 1.8.5-1.4 1.7-6.4 2.4-9.6-.6-1.4-4.7-2.2-7.8-2.2-1.2 0-2.3.1-3 .3-.4.1-.6.3-.6.4 0 .3.6.8 1.1 1.2zM16.2 7.1c.7-.3 1.3-.8 1.3-1 0-.1-.2-.3-.8-.6-1.6-.6-6.1-.1-8.7 1.2-1 .5-1.7 1-1.9 1.5.5 3 1.4 7.6 1.8 9.2l.1-.4c1.1-2 3.5-6.8 8.2-9.9zM30.6 15.7c-1.5-2-3.7-5.1-6.5-8-.1-.1-.5-.4-.9-.7l-.8-.2c-.7-.1-1.3-.2-2-.2s-1.4.1-2.2.2c-.1 0-.2.1-.4.1-.4.5-1.1.8-1.3.9-3.4 2.3-5.6 5.4-6.9 7.7.1.2.2.4.3.7 1.3 2.3 2.1 4.2 2.7 5.8 1.5 4.3 1.4 6.5 4.3 7.4 1.1.4 2.3.5 3.5.5 1.5 0 2.9-.3 4.2-.8 2.7-1.1 2.6-2.8 3.9-7.1.5-1.6 1.2-3.5 2.2-5.9.1-.1 0-.2-.1-.4z"/></svg>
